<?xml version="1.0" encoding="UTF-8"?>
<svg viewBox="0 0 142.04453 119.28495" xmlns="http://www.w3.org/2000/svg" xmlns:xlink="http://www.w3.org/1999/xlink">
 <defs>
  <linearGradient id="b">
   <stop stop-color="#a5a5a5" offset="0"/>
   <stop offset="1"/>
  </linearGradient>
  <linearGradient id="t" x1="346.24" x2="359.47" gradientTransform="matrix(.29919 -.06818 .07325 .31749 386.92 -341.92)" gradientUnits="userSpaceOnUse">
   <stop stop-color="#ffb142" offset="0"/>
   <stop stop-color="#c87600" offset="1"/>
  </linearGradient>
  <linearGradient id="a">
   <stop stop-opacity="0" offset="0"/>
   <stop stop-opacity="0" offset=".6"/>
   <stop offset="1"/>
  </linearGradient>
  <linearGradient id="d">
   <stop stop-color="#fff" offset="0"/>
   <stop stop-color="#fff" stop-opacity="0" offset="1"/>
  </linearGradient>
  <linearGradient id="q" x1="95.31" x2="102.08" y1="184.39" y2="105.54" gradientUnits="userSpaceOnUse">
   <stop stop-opacity=".6784" offset="0"/>
   <stop stop-opacity=".3294" offset=".57"/>
   <stop stop-opacity="0" offset="1"/>
  </linearGradient>
  <linearGradient id="p" x1="150.68" x2="89.969" gradientUnits="userSpaceOnUse" spreadMethod="reflect">
   <stop stop-color="#fff" offset="0"/>
   <stop stop-color="#bf9e15" offset="0"/>
   <stop stop-color="#fae79f" offset="1"/>
  </linearGradient>
  <linearGradient id="o" x1="145.78" x2="92.919" y1="30.686" y2="64.382" gradientUnits="userSpaceOnUse">
   <stop stop-color="#bf9e15" stop-opacity=".6637" offset="0"/>
   <stop stop-color="#fae79f" stop-opacity=".8761" offset="1"/>
  </linearGradient>
  <linearGradient id="s" x1="-274.36" x2="175.75" gradientUnits="userSpaceOnUse" xlink:href="#d"/>
  <linearGradient id="r" x2="0" y1="-759.91" y2="683.46" gradientUnits="userSpaceOnUse" xlink:href="#d"/>
  <radialGradient id="c" cx="414.68" cy="-8.8805" r="123.55" gradientTransform="matrix(-1.8232e-6 .27968 -.60927 0 645.56 -529.05)" gradientUnits="userSpaceOnUse">
   <stop stop-color="#ffb142" offset="0"/>
   <stop stop-color="#ffb141" offset=".8868"/>
   <stop stop-color="#c87600" offset="1"/>
  </radialGradient>
  <radialGradient id="n" cx="610.46" cy="483.45" r="167.56" gradientTransform="matrix(0 -.48219 .4319 -1.2542e-6 -151.97 551.35)" gradientUnits="userSpaceOnUse" xlink:href="#b"/>
  <radialGradient id="l" cx="380.26" cy="622.49" r="59.255" gradientTransform="matrix(0 -.74351 .66041 0 -364.7 582.13)" gradientUnits="userSpaceOnUse" xlink:href="#b"/>
  <radialGradient id="m" cx="371.45" cy="647.69" r="59.255" gradientTransform="matrix(0 -.74351 -.66041 0 552.03 582.13)" gradientUnits="userSpaceOnUse" xlink:href="#b"/>
  <radialGradient id="k" cx="505.31" cy="340.96" r="17.922" gradientTransform="matrix(4.678 -1.2535 1.066 3.9785 -2624.1 -578.83)" gradientUnits="userSpaceOnUse" xlink:href="#a"/>
  <radialGradient id="j" cx="499.62" cy="357.75" r="13.047" gradientTransform="matrix(7.0129 -.55582 1.711 21.589 -4040.8 -7234.9)" gradientUnits="userSpaceOnUse" xlink:href="#a"/>
  <radialGradient id="i" cx="507.58" cy="332.63" r="17.922" gradientTransform="matrix(5.7514 -1.5411 1.066 3.9785 -3169 -432.83)" gradientUnits="userSpaceOnUse" xlink:href="#a"/>
  <radialGradient id="h" cx="504.93" cy="332.63" r="17.922" gradientTransform="matrix(-3.5987e-6 -5.9543 3.7887 0 -1155.4 3130.6)" gradientUnits="userSpaceOnUse" xlink:href="#a"/>
  <radialGradient id="g" cx="508.93" cy="327.4" r="17.922" gradientTransform="matrix(2.153 -4.4202 4.8799 2.3769 -2608.7 1574)" gradientUnits="userSpaceOnUse" xlink:href="#a"/>
  <radialGradient id="f" cx="506.72" cy="326.56" r="17.922" gradientTransform="matrix(0 -2.6268 3.5592 2.0394e-6 -1051.6 1462.1)" gradientUnits="userSpaceOnUse" xlink:href="#a"/>
  <radialGradient id="e" cx="521.02" cy="324.51" r="17.922" gradientTransform="matrix(0 -2.5516 3.4575 1.9811e-6 -1017 1426)" gradientUnits="userSpaceOnUse" xlink:href="#a"/>
 </defs>
 <g transform="translate(-458.21 250.11)">
  <path transform="matrix(.94378 -.03988 .06781 .99494 -55.1 -22.863)" d="m625.62-104.25c-15.668 1.6128-33.643 14.298-26.5 17.062s27.864 3.9132 31.781 0.6875c2.0127-1.6576 5.6068-5.7923 6.0312-9.6875 7e-3 0.06343 0.0227 0.12395 0.0313 0.1875v-1.8125c-8e-3 0.05349-0.025 0.10251-0.0313 0.15625-0.36355-3.1099-3.2447-5.8161-11.312-6.5938z" fill="url(#c)" fill-rule="evenodd" stroke="#000" stroke-width="1.5639"/>
  <path transform="matrix(.94378 -.03988 .06781 .99494 -55.1 -22.863)" d="m625.62-104.25c-7.69 0.79161-15.942 4.2638-21.5 7.9062 8.4173 3.8928 18.719 6.2865 29.875 6.5625 1.4296-1.8809 2.6948-4.1784 2.9375-6.4062 6e-3 0.05313 0.0243 0.10304 0.0313 0.15625v-1.7812c-8e-3 0.05349-0.025 0.10251-0.0313 0.15625-0.36355-3.1099-3.2447-5.8161-11.312-6.5938z" fill-opacity=".3137" fill-rule="evenodd"/>
  <path transform="matrix(-.83783 .42994 .45618 .88989 1125.8 -335.28)" d="m625.62-104.25c-15.668 1.6128-33.643 14.298-26.5 17.062s27.864 3.9132 31.781 0.6875c2.0127-1.6576 5.6068-5.7923 6.0312-9.6875 7e-3 0.06343 0.0227 0.12395 0.0313 0.1875v-1.8125c-8e-3 0.05349-0.025 0.10251-0.0313 0.15625-0.36355-3.1099-3.2447-5.8161-11.312-6.5938z" fill="url(#c)" fill-rule="evenodd" stroke="#000" stroke-width="1.5639"/>
  <path transform="matrix(-.83783 .42994 .45618 .88989 1125.8 -335.28)" d="m625.62-104.25c-7.69 0.79161-17.577 5.9215-23.135 9.564 8.4173 3.8928 20.353 4.6288 31.51 4.9047 1.4296-1.8809 2.6948-4.1784 2.9375-6.4062 6e-3 0.05313 0.0243 0.10304 0.0313 0.15625v-1.7812c-8e-3 0.05349-0.025 0.10251-0.0313 0.15625-0.36355-3.1099-3.2447-5.8161-11.312-6.5938z" fill-opacity=".3137" fill-rule="evenodd"/>
  <g transform="matrix(.9182 -.20923 .22481 .97437 370.04 -507.79)">
   <path d="m146.28 340.23a53.948 53.948 0 0 1 -107.9 0 53.948 53.948 0 1 1 107.9 0z" fill="url(#n)" stroke="#000" stroke-linecap="round" stroke-width="1.5639"/>
   <path d="m118.99 367.2a26.153 26.153 0 1 1 -52.307 0 26.153 26.153 0 1 1 52.307 0z" fill="#fff" stroke="#000" stroke-linecap="round" stroke-width="1.6292"/>
   <path d="m144.15 325.23c0.10951 1.4027 0.1731 2.8155 0.1731 4.2461 0 29.779-24.178 53.947-53.957 53.947-24.575 0-45.316-16.459-51.819-38.948 2.1699 27.795 25.426 49.701 53.774 49.701 29.779 0 53.957-24.168 53.957-53.947 0-5.2041-0.75099-10.237-2.1282-14.999z" fill-opacity=".3137"/>
  </g>
  <path d="m513.06-228.27c-6.8618 1.5636-10.865 9.6387-8.9304 18.024s9.0778 13.92 15.94 12.356c4.0325-0.91889 7.0681-4.0871 8.4999-8.2446 3.1119 3.1249 7.2403 4.6578 11.275 3.7386 6.8618-1.5636 10.865-9.6387 8.9304-18.024s-9.0779-13.92-15.94-12.356c-4.0337 0.91918-7.078 4.0873-8.5093 8.2468-3.1113-3.1214-7.2332-4.6595-11.265-3.7407z" fill="#fff" stroke="#000" stroke-linecap="round" stroke-width="1.581"/>
  <path d="m528.53-204.24c-4.1882 1.4891-7.3447 7.1691-6.2809 9.6696s12.021 10.599 13.66 10.016 4.4122-13.323 3.2015-16.251-7.9226-4.6197-10.581-3.4348z" fill-opacity=".3137" fill-rule="evenodd"/>
  <path d="m528.28-206.95c-4.3319 0.98713-8.1644 5.8576-7.4227 8.2131s10.581 10.632 12.276 10.246 6.0276-11.682 5.1937-14.437-7.2682-4.8654-10.047-4.0218z" fill="url(#t)" fill-rule="evenodd" stroke="#000" stroke-width="1.581"/>
  <path d="m524.89-212.16a3.3846 3.1873 75.793 1 1 -6.2154 1.4163 3.3846 3.1873 75.793 0 1 6.2154 -1.4163z" stroke="#000" stroke-linecap="round" stroke-width="1.581"/>
  <path d="m533.97-218.65a3.3846 3.1873 75.793 1 1 -6.2154 1.4163 3.3846 3.1873 75.793 1 1 6.2154 -1.4163z" stroke="#000" stroke-linecap="round" stroke-width="1.581"/>
  <g transform="matrix(.68494 .69381 -.64692 .71957 672.62 -476.45)" fill-rule="evenodd" stroke="#000" stroke-width="1.6292">
   <path d="m51.639 328.16c15.677 5.6371-4.615 30.676 12.323 52.523 3.1308 4.0382-18.856 0.68126-26.629-21.696-7.559-21.762-0.36897-35.041 14.306-30.827z" fill="#fff"/>
   <path d="m51.639 328.16c15.677 5.6371-13.877 33.276 12.323 52.523 7.3726 5.416-18.856 0.68126-26.629-21.696-7.559-21.762-0.36897-35.041 14.306-30.827z" fill="url(#l)"/>
  </g>
  <g transform="matrix(.75333 -.5791 .57108 .81106 279.61 -393.65)" fill-rule="evenodd" stroke="#000" stroke-width="1.6292">
   <path d="m135.69 328.16c-15.677 5.6371 4.615 30.676-12.323 52.523-3.1308 4.0382 18.856 0.68126 26.629-21.696 7.559-21.762 0.36897-35.041-14.306-30.827z" fill="#fff"/>
   <path d="m135.69 328.16c-15.677 5.6371 13.877 33.276-12.323 52.523-7.3726 5.416 18.856 0.68126 26.629-21.696 7.559-21.762 0.36897-35.041-14.306-30.827z" fill="url(#m)"/>
  </g>
  <g transform="matrix(.11622 -.0295 .03132 .12341 451.4 -225.78)">
   <path d="m104.95 226.39c-42.321 0-77.931 32.181-76.693 71.831l7.5072 240.4c0.59536 19.065 31.036 34.55 69.186 34.55s68.505-15.485 69.101-34.55l7.5072-240.4c1.2382-39.65-34.287-71.831-76.608-71.831z" fill="#008080"/>
   <g transform="matrix(1.0957 0 0 1.0558 -61.096 75.468)">
    <path d="m114.55 45.628c22.231 24.955 61.68 21.227 72.125-1.4142l15.556-77.782-101.58-1.3766 13.898 80.573z" fill-rule="evenodd"/>
    <path d="m151.54-62.324c28.146-4.5e-5 50.978 11.663 50.978 26.126s-22.832 26.266-50.978 26.266-50.978-11.803-50.978-26.266 22.832-26.126 50.978-26.126z"/>
   </g>
   <path transform="matrix(4.0626 0 0 4.0118 -2227.1 -1366.2)" d="m573.91 361.69c-3.6006-1e-5 -6.8813 0.70629-9.4688 2s-4.8125 3.401-4.8125 6.3438v5c1e-5 2.5112 1.6168 4.4023 3.7188 5.7188-0.30298 4.6535-0.5 9.6287-0.5 14.969 1e-5 0.84626 0.0131 1.6163 0.0313 2.4062-6.3088 3.5393-10.765 9.9159-10.531 17.406l1.875 60.094c0.11364 3.64 2.8912 6.4078 6.4375 8.1875s8.1579 2.7812 13.25 2.7812 9.7037-1.0016 13.25-2.7812 6.3238-4.5475 6.4375-8.1875l1.875-60.094c0.234-7.4926-4.225-13.868-10.531-17.406 0.0181-0.78987 0.0313-1.5598 0.0313-2.4062 3e-5 -5.4075-0.22249-10.456-0.53125-15.156 2.0413-1.307 3.75-3.0622 3.75-5.5312v-5c-1e-5 -2.9427-2.2251-5.05-4.8125-6.3438s-5.8682-2-9.4688-2z"/>
   <path d="m104.95 92.625c-26.201 0-47.567 10.683-47.567 23.784v20.054c-4.2e-5 6.8503 5.8448 12.995 15.165 17.32-1.4447 19.905-2.2374 42.007-2.2374 65.383 0 5.0058 0.09319 9.9488 0.16574 14.834-25.444 11.79-43.058 36.101-42.18 64.223l7.4582 240.4c0.59531 19.066 31.046 34.556 69.195 34.556s68.517-15.491 69.113-34.556l7.4582-240.4c0.8785-28.13-16.751-52.437-42.18-64.223 0.0721-4.8848 0.16578-9.8278 0.16578-14.834 0-23.375-0.80161-45.479-2.2375-65.383 0.40715-0.18941 0.84945-0.38381 1.243-0.58012 8.5959-4.2875 13.922-10.189 13.922-16.74v-20.054c-5e-5 -13.101-21.283-23.784-47.484-23.784z" fill="#32a3a3"/>
   <path d="m104.95 226.39c-42.321 0-77.931 32.181-76.693 71.831l7.5072 240.4c0.59536 19.065 31.036 34.55 69.186 34.55s68.505-15.485 69.101-34.55l7.5072-240.4c1.2382-39.65-34.287-71.831-76.608-71.831z" fill="#008080"/>
   <path d="m29.17 348.65 5.6139 186.7c0.40576 13.446 10.326 23.666 22.989 30.24s29.144 10.254 47.325 10.254 34.635-3.6795 47.297-10.254 22.583-16.793 22.989-30.24l5.5578-183.6c-7.1905 14.118-38.21 24.756-75.311 24.756-39.771 0-72.524-12.221-76.462-27.854z" fill="#88232d"/>
   <path transform="matrix(.91474 0 0 .67222 -354.6 86.065)" d="m585.48 390.99c0 30.07-37.357 54.447-83.439 54.447s-83.439-24.377-83.439-54.447 37.357-54.447 83.439-54.447 83.439 24.377 83.439 54.447z" fill="#8a4e49"/>
   <path d="m104.95 92.624c-26.201-6e-5 -47.567 10.683-47.567 23.783v20.054c-6e-5 13.101 21.366 23.7 47.567 23.7s47.484-10.6 47.484-23.7v-20.054c-5e-5 -13.1-21.283-23.783-47.484-23.783zm0 3.8948c17.157-5.9e-5 31.076 6.9178 31.076 15.496s-13.918 15.579-31.076 15.579-31.076-7.0006-31.076-15.579 13.918-15.496 31.076-15.496z" fill="url(#k)"/>
   <path d="m72.549 153.7c-1.4484 19.926-2.2375 42.059-2.2375 65.466 0 5.0057 0.09322 9.9488 0.16575 14.833 10.429-4.8324 22.17-7.6239 34.473-7.6239s23.977 2.7975 34.391 7.6239c0.072-4.8847 0.16574-9.8278 0.16574-14.833-2e-5 -23.375-0.80158-45.479-2.2374-65.383-8.4723 3.9351-19.823 6.3809-32.319 6.3809-12.532 0-23.897-2.5081-32.402-6.4638z" fill="url(#j)"/>
   <path d="m104.95 92.624c-26.201-6e-5 -47.567 10.683-47.567 23.783v20.054c-6e-5 13.101 21.366 23.7 47.567 23.7s47.484-10.6 47.484-23.7v-20.054c-5e-5 -13.1-21.283-23.783-47.484-23.783zm0 3.8948c17.157-5.9e-5 31.076 6.9178 31.076 15.496s-13.918 15.579-31.076 15.579-31.076-7.0006-31.076-15.579 13.918-15.496 31.076-15.496z" fill="url(#i)"/>
   <path d="m104.95 92.624c-26.201-6e-5 -47.567 10.683-47.567 23.783v20.054c-6e-5 13.101 21.366 23.7 47.567 23.7s47.484-10.6 47.484-23.7v-20.054c-5e-5 -13.1-21.283-23.783-47.484-23.783zm0 3.8948c17.157-5.9e-5 31.076 6.9178 31.076 15.496s-13.918 15.579-31.076 15.579-31.076-7.0006-31.076-15.579 13.918-15.496 31.076-15.496z" fill="url(#h)"/>
   <path d="m104.95 92.624c-26.201-6e-5 -47.567 10.683-47.567 23.783v20.054c-6e-5 13.101 21.366 23.7 47.567 23.7s47.484-10.6 47.484-23.7v-20.054c-5e-5 -13.1-21.283-23.783-47.484-23.783zm0 3.8948c17.157-5.9e-5 31.076 6.9178 31.076 15.496s-13.918 15.579-31.076 15.579-31.076-7.0006-31.076-15.579 13.918-15.496 31.076-15.496z" fill="url(#g)"/>
   <path d="m57.881 113.26c-0.13822 0.57922-0.24721 1.1554-0.33148 1.7422-0.08786 0.61168-0.16573 1.2681-0.16573 1.8938v17.573c-6e-5 11.975 21.366 21.664 47.567 21.664s47.484-9.689 47.484-21.664v-17.573c0-0.62563-0.0778-1.2821-0.16573-1.8938-0.0844-0.58674-0.19374-1.1629-0.33148-1.7422-3.2234 13.115-23.029 23.179-46.987 23.179s-43.835-10.063-47.069-23.179z" fill="#008080"/>
   <path d="m72.549 153.7c-1.4484 19.926-2.2375 42.059-2.2375 65.466 0 5.0057 0.09322 9.9488 0.16575 14.833 10.429-4.8324 22.17-7.6239 34.473-7.6239s23.977 2.7975 34.391 7.6239c0.072-4.8847 0.16574-9.8278 0.16574-14.833-2e-5 -23.375-0.80158-45.479-2.2374-65.383-8.4723 3.9351-19.823 6.3809-32.319 6.3809-12.532 0-23.897-2.5081-32.402-6.4638z" fill="#008080"/>
   <path d="m89.087 157.43c-1.3886 18.963-2.1324 39.753-2.1324 61.737 2.6e-5 5.0057 2.2e-4 9.9488 0.07897 14.833-27.632 11.79-46.761 36.1-45.808 64.223l7.0291 193.17c12.261 5.8672 29.448 10.318 49.441 12.43l-6.0814-205.6c-0.62429-22.717 9.4404-43.019 25.115-56.185l-2.2904-81.957c-1.3697 0.0655-2.7838 0.0829-4.1859 0.0829-7.6488 0-14.835-0.97835-21.166-2.7346z" fill="url(#s)"/>
   <path d="m85.928 156.43c-0.98918 19.223-1.5006 40.369-1.5006 62.732 3.4e-5 5.0057 0.02491 9.9488 0.07898 14.833-18.977 11.79-32.089 36.1-31.434 64.223l4.8177 246.2c8.4208 5.8672 20.23 10.318 33.961 12.43l-4.1859-258.63c-0.42868-22.717 6.4522-43.019 17.217-56.185l-1.5796-82.206c-6.3046-0.51036-12.204-1.673-17.375-3.3976z" fill="url(#r)"/>
   <path d="m104.95 96.519c17.157-5.9e-5 31.076 6.9178 31.076 15.496s-13.918 15.579-31.076 15.579-31.076-7.0006-31.076-15.579 13.918-15.496 31.076-15.496z" fill="url(#f)"/>
   <path d="m104.95 96.519c17.157-5.9e-5 31.076 6.9178 31.076 15.496s-13.918 15.579-31.076 15.579-31.076-7.0006-31.076-15.579 13.918-15.496 31.076-15.496z" fill="url(#q)"/>
   <path d="m104.95 96.519c17.157-5.9e-5 31.076 6.9178 31.076 15.496s-13.918 15.579-31.076 15.579-31.076-7.0006-31.076-15.579 13.918-15.496 31.076-15.496z" fill="url(#e)"/>
   <path d="m73.76 113.06c13.3 21.893 59.075 19.863 63.276-1.2407l13.648-68.238-89.241-0.72359 12.318 70.203z" fill="url(#p)" fill-rule="evenodd"/>
   <path d="m106.21 18.355c24.693-4e-5 44.723 10.232 44.723 22.921s-20.031 23.043-44.723 23.043-44.723-10.355-44.723-23.043 20.031-22.921 44.723-22.921z" fill="#654100"/>
   <path d="m106.21 18.418c24.693-4e-5 44.723 10.232 44.723 22.921s-20.031 23.043-44.723 23.043-44.723-10.355-44.723-23.043 20.031-22.921 44.723-22.921z" fill="url(#o)"/>
  </g>
 </g>
</svg>
